<svg width="531" height="483" viewBox="0 0 531 483" fill="none" xmlns="http://www.w3.org/2000/svg">
<path d="M397.801 106.225C437.468 130.792 422.552 157.491 403.39 182.22C384.228 206.949 361.622 230.003 385.365 247.244C405.47 265.687 440.397 254.776 470.805 250.065C501.485 245.373 527.663 246.641 530.546 289.461C523.127 322.682 491.662 318.652 458.531 310.898C425.4 303.144 390.57 292.146 376.599 312.887C362.372 329.276 384.176 342.775 405.5 359.373C426.519 376.432 446.849 395.613 429.097 423.808C402.55 448.525 388.788 437.49 371.197 422.346C353.607 407.201 330.024 387.563 285.758 394.959C267.766 398.092 270.409 419.943 268.438 441.246C266.499 462.068 260.186 482.84 224.636 482.631C203.007 482.871 195.237 468.142 189.406 453.062C183.591 437.741 179.698 422.309 162.556 420.922C145.99 419.092 133.622 428.139 120.949 433.554C108.276 438.968 95.299 440.75 77.2277 424.61C55.4879 397.87 76.7162 379.059 99.5787 360.357C122.441 341.656 146.377 323.266 130.325 297.388C116.932 276.744 89.8557 292.997 63.5969 305.21C37.3381 317.423 12.4413 325.632 3.67875 288.922C-4.04255 257.097 20.9986 246.73 49.7726 237.816C78.5626 228.662 111.069 221.202 118.552 195.21C128.967 158.096 80.68 127.413 42.6629 98.6207C4.64576 69.8286 -23.3262 42.1897 27.8938 12.6195C81.7733 -19.9037 103.449 15.9843 122.016 57.4445C139.222 98.8137 153.575 146.013 192.715 137.551C215.481 132.57 204.635 110.652 197.683 87.79C190.714 65.1676 187.671 41.1217 226.842 32.1803C268.241 22.6652 275.562 52.2953 277.195 85.1577C278.828 118.02 274.758 154.355 293.118 157.99C312.279 161.92 321.636 140.63 334.341 122.453C347.318 104.295 363.917 89.269 397.801 106.225ZM464.225 53.8286C462.702 76.6059 441.763 87.0069 421.064 85.6233C400.364 84.2396 380.979 71.3838 382.518 48.3667C384.121 24.3906 405.077 13.7498 425.776 15.1334C446.475 16.5171 465.828 29.8524 464.225 53.8286Z" fill="white"/>
</svg>
