<svg width="112" height="234" viewBox="0 0 112 234" fill="none" xmlns="http://www.w3.org/2000/svg">
<path d="M83.729 35.5475C82.6169 33.5366 80.9797 31.8653 78.992 30.7122C77.0043 29.559 74.7407 28.9672 72.443 29H40.016C37.6013 28.9782 35.2284 29.6314 33.1651 30.8861C31.1018 32.1408 29.4301 33.947 28.3385 36.101C20.6975 51.41 3.63351 88.4405 2.10801 116.696L2.09218 116.734L2.054 116.75L2.01581 116.766L2 116.804V204.5C2 211.661 4.84464 218.528 9.90812 223.592C14.9716 228.655 21.8392 231.5 29 231.5H83C90.1608 231.5 97.0284 228.655 102.092 223.592C107.155 218.528 110 211.661 110 204.5V116.791L109.959 116.75L109.919 116.71C108.569 84.4445 91.451 49.682 83.729 35.5475Z" stroke="white" stroke-width="4"/>
<path d="M89.75 2H22.25C18.522 2 15.5 5.02208 15.5 8.75V22.25C15.5 25.9779 18.522 29 22.25 29H89.75C93.4779 29 96.5 25.9779 96.5 22.25V8.75C96.5 5.02208 93.4779 2 89.75 2Z" fill="#F16573" stroke="#F16573" stroke-width="4"/>
<path d="M110 116H4.99996" stroke="white" stroke-width="4" stroke-linecap="round"/>
<path d="M1.99997 116H110V202C110 218.569 96.5685 232 80 232H32C15.4314 232 1.99997 218.569 1.99997 202V116Z" fill="white"/>
</svg>
