<svg width="112" height="243" viewBox="0 0 112 243" fill="none" xmlns="http://www.w3.org/2000/svg">
<path d="M83.729 44.6784C91.451 58.8129 108.569 93.5754 109.919 125.84L109.96 125.881L110 125.921L110 213.631C110 220.792 107.155 227.659 102.092 232.723C97.0284 237.786 90.1609 240.631 83 240.631H29C21.8392 240.631 14.9716 237.786 9.90812 232.723C4.84464 227.659 2 220.792 2 213.631L2 125.935L2.01581 125.897L2.054 125.881L2.09218 125.865L2.10801 125.827C3.63351 97.5714 20.6975 60.5409 28.3385 45.2319C29.4301 43.0779 31.1018 41.2717 33.1651 40.017C35.2284 38.7623 37.6013 38.1091 40.016 38.1309" stroke="white" stroke-width="4"/>
<path d="M84.6576 2.26908L19.826 21.0602C16.2454 22.098 14.1841 25.8419 15.2219 29.4225L18.9801 42.3888C20.0179 45.9694 23.7619 48.0307 27.3424 46.9929L92.1741 28.2017C95.7546 27.1639 97.8159 23.42 96.7781 19.8395L93.0199 6.87314C91.9821 3.29258 88.2382 1.23128 84.6576 2.26908Z" fill="#FFDC92" stroke="#FFDC92" stroke-width="4"/>
<path d="M2 188.131L110 188.131" stroke="white" stroke-width="4" stroke-linecap="round"/>
<path d="M2.44809 163.081C44.6247 163.081 63.6777 101.015 105.854 101.015L109.186 138.404L109.76 210.893C109.892 227.554 96.4228 241.131 79.7614 241.131H32.1727C15.5369 241.131 2.07772 227.594 2.17322 210.959L2.44809 163.081Z" fill="white"/>
</svg>
